<?xml version="1.0" encoding="UTF-8" standalone="no"?>
<!DOCTYPE svg PUBLIC "-//W3C//DTD SVG 20010904//EN" "http://www.w3.org/TR/2001/REC-SVG-20010904/DTD/svg10.dtd">
<svg version="1.0" xmlns="http://www.w3.org/2000/svg" width="300.000000pt" height="240.000000pt" viewBox="0 0 300.000000 240.000000" preserveAspectRatio="xMidYMid meet">
<metadata>
Created by potrace 1.10, written by Peter Selinger 2001-2011
</metadata>
<g transform="translate(0.000000,240.000000) scale(0.100000,-0.100000)" fill="#000000" stroke="none">
<path d="M1289 1816 c-2 -2 -61 -9 -130 -15 -395 -34 -743 -141 -929 -287 -142 -111 -180 -224 -180 -527 0 -299 40 -411 185 -523 57 -44 131 -86 195 -113 30 -12 64 -26 75 -31 11 -5 49 -17 85 -28 189 -57 261 -72 485 -103 197 -27 768 -20 925 11 25 4 97 18 160 30 127 24 135 26 269 70 225 75 397 189 457 302 73 139 87 525 27 713 -41 124 -132 211 -315 302 -75 37 -281 107 -344 118 -21 4 -50 10 -64 15 -35 12 -292 47 -431 60 -111 10 -461 14 -470 6z m626 -50 c227 -31 500 -100 518 -132 4 -8 14 -14 22 -14 20 0 180 -85 207 -109 12 -12 29 -23 38 -26 21 -7 102 -100 123 -142 23 -43 21 -115 -2 -161 -37 -73 -140 -152 -265 -204 -39 -16 -80 -33 -91 -38 -74 -32 -300 -92 -420 -110 -544 -84 -1137 -39 -1530 117 -49 19 -97 41 -105 48 -8 7 -42 26 -75 43 -62 31 -127 94 -158 153 -11 21 -18 58 -18 97 -1 57 2 67 37 119 35 50 90 103 107 103 4 0 30 15 59 34 29 18 82 44 118 57 36 12 76 31 90 41 54 37 349 106 550 127 58 6 121 13 140 15 80 9 551 -4 655 -18z m935 -383 c0 -7 4 -13 8 -13 5 0 16 -26 25 -57 61 -206 44 -598 -30 -713 -25 -38 -105 -120 -117 -120 -6 0 -24 -12 -41 -26 -38 -33 -86 -57 -196 -100 -126 -48 -359 -110 -454 -119 -22 -2 -103 -11 -180 -19 -230 -25 -715 -17 -865 14 -25 5 -67 12 -95 15 -145 19 -410 101 -535 166 -238 124 -290 227 -290 576 0 156 14 285 35 337 12 28 13 26 14 -37 0 -47 7 -78 23 -109 32 -62 115 -142 178 -173 30 -15 62 -33 70 -40 24 -20 228 -92 351 -124 362 -94 860 -110 1304 -41 120 18 346 78 420 110 11 5 52 22 91 38 89 37 144 72 207 131 115 108 127 227 32 339 -37 44 -31 51 10 12 19 -19 35 -40 35 -47z"/>
</g>
</svg>