<?xml version="1.0" standalone="no"?>
<!DOCTYPE svg PUBLIC "-//W3C//DTD SVG 20010904//EN"
 "http://www.w3.org/TR/2001/REC-SVG-20010904/DTD/svg10.dtd">
<svg version="1.0" xmlns="http://www.w3.org/2000/svg"
 width="400.000000pt" height="261.000000pt" viewBox="0 0 400.000000 261.000000"
 preserveAspectRatio="xMidYMid meet">
<metadata>
Created by potrace 1.12, written by Peter Selinger 2001-2015
</metadata>
<g transform="translate(0.000000,261.000000) scale(0.100000,-0.100000)"
fill="#000000" stroke="none">
<path d="M1430 2459 c-459 -61 -857 -186 -1065 -334 -75 -54 -176 -158 -203
-210 -59 -117 -85 -303 -86 -615 -1 -403 42 -581 173 -722 186 -201 590 -356
1116 -427 670 -91 1454 -25 1945 164 276 106 472 256 532 406 94 234 104 835
19 1109 -82 263 -406 453 -985 576 -292 62 -344 66 -841 70 -411 2 -476 1
-605 -17z m883 1 c369 -21 713 -92 1001 -207 360 -142 526 -294 526 -482 0
-32 7 -71 15 -88 37 -75 27 -714 -14 -875 -63 -245 -328 -421 -826 -549 -355
-91 -597 -119 -1040 -119 -546 0 -993 79 -1383 243 -83 35 -249 141 -308 195
-68 64 -111 144 -139 262 -20 82 -38 453 -30 620 11 238 18 281 41 230 6 -14
8 12 6 75 -5 113 10 152 86 230 81 84 123 115 224 166 331 167 699 261 1173
298 146 12 475 12 668 1z"/>
<!--<path d="M206 1874 c-11 -29 -6 -120 9 -172 26 -88 150 -206 300 -285 73 -39
257 -117 275 -117 8 0 35 7 60 16 79 28 339 84 479 104 388 54 913 56 1308 4
183 -23 543 -107 543 -125 0 -9 -31 -18 -180 -54 -446 -109 -944 -139 -1465
-90 -177 17 -333 43 -542 90 -157 36 -202 42 -173 26 35 -21 302 -81 475 -107
441 -66 1035 -64 1460 7 172 29 374 83 452 123 38 19 92 44 120 55 281 110
473 290 473 444 0 64 -13 59 -28 -11 -7 -32 -24 -81 -38 -110 -53 -106 -229
-234 -431 -313 l-83 -32 -192 47 c-229 56 -208 51 -339 71 -567 86 -1403 42
-1832 -97 -66 -21 -68 -21 -125 -4 -215 66 -447 232 -492 353 -22 60 -27 162
-8 181 9 9 8 12 -4 12 -9 0 -19 -7 -22 -16z"/>-->
</g>
</svg>
