<?xml version="1.0" standalone="no"?>
<!DOCTYPE svg PUBLIC "-//W3C//DTD SVG 20010904//EN"
 "http://www.w3.org/TR/2001/REC-SVG-20010904/DTD/svg10.dtd">
<svg version="1.0" xmlns="http://www.w3.org/2000/svg"
 width="1500.000000pt" height="900.000000pt" viewBox="0 0 1500.000000 900.000000"
 preserveAspectRatio="xMidYMid meet">
<metadata>
Created by potrace 1.13, written by Peter Selinger 2001-2015
</metadata>
<g transform="translate(0.000000,900.000000) scale(0.100000,-0.100000)"
fill="#000000" stroke="none">
<path d="M5600 6113 c-19 -3 -40 -9 -47 -15 -7 -5 -22 -7 -34 -3 -14 5 -25 2
-30 -6 -7 -12 -9 -12 -9 0 0 9 -9 12 -32 7 -18 -3 -98 -8 -178 -11 -79 -4
-148 -9 -153 -12 -5 -3 -29 1 -54 7 -33 10 -47 10 -52 2 -4 -7 -51 -14 -114
-17 -59 -2 -117 -10 -129 -16 -15 -8 -27 -8 -45 0 -17 8 -37 8 -61 2 -44 -11
-193 -25 -241 -22 -18 0 -39 -3 -45 -8 -14 -12 -186 -19 -186 -7 0 4 -12 5
-26 2 -17 -5 -32 -2 -43 8 -15 14 -25 14 -85 2 -45 -10 -77 -11 -99 -5 -42 12
-114 12 -119 -1 -2 -5 -48 -10 -103 -11 -55 -1 -110 -6 -121 -10 -12 -4 -64
-10 -117 -14 -53 -3 -122 -11 -154 -17 -32 -6 -89 -12 -128 -13 -125 -5 -207
-14 -220 -25 -7 -6 -24 -8 -38 -5 -14 4 -50 2 -81 -5 -31 -6 -70 -12 -88 -12
-18 0 -37 -4 -43 -8 -21 -15 -213 -52 -263 -51 -12 0 -22 -3 -22 -8 0 -10 -77
-31 -114 -31 -14 0 -26 -4 -26 -10 0 -5 -13 -10 -29 -10 -17 0 -33 -4 -36 -10
-3 -5 -17 -10 -30 -10 -13 0 -27 -4 -30 -10 -3 -5 -16 -10 -29 -10 -12 0 -25
-3 -28 -6 -4 -3 -32 -7 -65 -9 -32 -3 -92 -16 -133 -30 -41 -15 -89 -31 -107
-37 -41 -14 -50 -47 -26 -96 33 -68 123 -111 358 -175 72 -20 165 -40 209 -46
43 -6 81 -13 85 -16 4 -2 81 -13 172 -25 90 -11 175 -22 189 -24 14 -2 68 -9
120 -16 52 -6 122 -15 155 -20 33 -5 141 -19 240 -30 99 -11 212 -25 250 -30
39 -5 117 -15 174 -20 57 -6 107 -13 111 -15 10 -6 210 -23 475 -40 500 -32
692 -45 725 -50 37 -4 289 -18 645 -35 772 -36 1475 -36 2125 -1 102 6 338 13
525 16 187 3 369 7 405 10 36 3 207 10 380 15 520 17 726 28 1060 60 58 6 179
17 270 25 218 20 305 29 615 66 143 17 318 37 388 45 300 33 478 58 782 108
50 9 176 29 280 46 331 55 610 119 758 174 37 14 75 26 85 26 31 0 44 15 36
43 -3 15 -10 27 -16 27 -5 0 -29 13 -52 29 -31 22 -60 32 -107 37 -35 3 -70
11 -76 16 -7 6 -26 8 -43 6 -18 -3 -35 1 -41 9 -6 7 -18 13 -25 13 -8 0 -14 4
-14 9 0 6 -19 9 -41 9 -23 0 -44 4 -48 10 -3 5 -24 9 -46 9 -22 -1 -56 2 -77
6 -26 6 -40 3 -51 -7 -13 -14 -15 -13 -20 4 -4 16 -14 18 -68 17 -80 -1 -325
22 -357 34 -13 5 -46 6 -73 3 -32 -4 -49 -3 -49 4 0 6 -20 10 -44 10 -25 0
-59 7 -78 15 -25 12 -51 14 -103 9 -38 -4 -110 -3 -159 2 -67 6 -90 5 -96 -4
-6 -10 -8 -10 -12 0 -4 13 -95 20 -261 19 -48 0 -93 4 -100 9 -7 6 -54 13
-105 16 -51 3 -102 8 -115 11 -12 3 -83 7 -157 9 -74 2 -150 7 -167 11 -19 4
-33 3 -33 -2 0 -6 -28 -6 -72 -1 -137 15 -213 20 -388 24 -298 7 -330 9 -330
15 0 4 -68 7 -152 6 -105 0 -153 4 -156 12 -5 14 -32 15 -32 1 0 -7 -6 -7 -17
-2 -10 5 -123 9 -251 8 -127 0 -232 2 -232 7 0 4 -26 7 -58 6 -32 -1 -68 2
-81 6 -13 4 -28 2 -36 -5 -9 -7 -22 -9 -32 -4 -10 4 -58 8 -108 10 -367 10
-510 17 -526 27 -13 8 -21 8 -32 -1 -16 -13 -458 -19 -490 -7 -10 4 -41 4 -70
1 -29 -4 -59 -7 -67 -7 -102 3 -1000 10 -1170 10 -124 0 -326 -1 -450 -1 -124
0 -261 2 -305 5 -44 2 -96 2 -115 0z"/>
</g>
</svg>
